<svg width="21" height="21" viewBox="0 0 21 21" fill="none" xmlns="http://www.w3.org/2000/svg">
    <path d="M17.4697 9.09092V18C17.4697 19.1046 16.5743 20 15.4697 20H2.5C1.39543 20 0.5 19.1046 0.5 18V4.42426C0.5 3.31969 1.39543 2.42426 2.5 2.42426H11.4091" stroke="#1F2937" stroke-linecap="round"/>
    <path d="M8.3788 14.5455L4.93217 15.6943C4.85399 15.7204 4.77962 15.646 4.80568 15.5678L5.94709 12.1436C5.952 12.1289 5.96027 12.1155 5.97125 12.1045L16.8636 1.21213" stroke="#1F2937" stroke-linecap="round"/>
    <path d="M8.37878 14.5455L19.2879 3.63638" stroke="#1F2937" stroke-linecap="round"/>
    <path d="M16.8636 1.21212V1.21212C17.5331 0.542685 18.6185 0.542685 19.2879 1.21212V1.21212V1.21212C19.9573 1.88156 19.9573 2.96693 19.2879 3.63636V3.63636" stroke="#1F2937" stroke-linecap="round"/>
</svg>
