<svg width="21" height="35" viewBox="0 0 21 35" fill="none" xmlns="http://www.w3.org/2000/svg">
    <path d="M20.5 18C20.5 20.5115 19.4527 22.9253 17.5798 24.709C15.7061 26.4935 13.1598 27.5 10.5 27.5C7.84018 27.5 5.29391 26.4935 3.42021 24.709C1.54734 22.9253 0.5 20.5115 0.5 18" stroke="#1F2937"/>
    <path d="M2.61969 4.1517C3.53611 3.03729 4.70391 2.13003 6.03895 1.49779C7.37406 0.865521 8.84176 0.524755 10.3347 0.501299C11.8276 0.477843 13.3064 0.772317 14.6629 1.36241C16.0194 1.95247 17.2183 2.82275 18.173 3.90804" stroke="#1F2937"/>
    <rect x="4.5" y="4.5" width="12" height="19" rx="6" fill="#FF8F8F" stroke="#1F2937"/>
    <line x1="4" y1="34.5" x2="17" y2="34.5" stroke="#1F2937"/>
    <line x1="10.5" y1="28" x2="10.5" y2="34" stroke="#1F2937"/>
</svg>
