<svg width="22" height="36" viewBox="0 0 22 36" fill="none" xmlns="http://www.w3.org/2000/svg">
    <path d="M21.3478 18.5C21.3478 21.0115 20.3004 23.4253 18.4276 25.209C16.5539 26.9935 14.0076 28 11.3478 28C8.68796 28 6.14169 26.9935 4.26799 25.209C2.39511 23.4253 1.34778 21.0115 1.34778 18.5" stroke="#1F2937" stroke-linecap="round"/>
    <rect x="5.34778" y="5" width="12" height="19" rx="6" fill="#FF8F8F" stroke="#1F2937"/>
    <line x1="5.34778" y1="35" x2="17.3478" y2="35" stroke="#1F2937" stroke-linecap="round"/>
    <line x1="11.3478" y1="28.5" x2="11.3478" y2="34.5" stroke="#1F2937"/>
    <path d="M3.91296 4.58611C4.79917 3.472 5.92444 2.57129 7.20558 1.95058C8.48673 1.32987 9.891 1.00503 11.3146 1.00006C12.7382 0.995089 14.1447 1.31012 15.4301 1.92187C16.7156 2.53363 17.8471 3.42645 18.7411 4.53435" stroke="#1F2937" stroke-linecap="round"/>
</svg>
