<svg width="23" height="39" viewBox="0 0 23 39" fill="none" xmlns="http://www.w3.org/2000/svg">
    <path d="M21.5 22C21.5 24.5115 20.4527 26.9253 18.5798 28.709C16.7061 30.4935 14.1598 31.5 11.5 31.5C8.84018 31.5 6.29391 30.4935 4.42021 28.709C2.54734 26.9253 1.5 24.5115 1.5 22" stroke="#1F2937"/>
    <path d="M1.17911 5.15801C2.24605 3.73425 3.77042 2.54712 5.60987 1.72543C7.44917 0.903811 9.53152 0.480003 11.6481 0.500725C13.7646 0.521446 15.8329 0.98589 17.6456 1.84286C19.4585 2.69989 20.9449 3.91569 21.9671 5.35863" stroke="#1F2937"/>
    <path d="M3.61969 8.1517C4.53611 7.03729 5.70391 6.13003 7.03895 5.49779C8.37406 4.86552 9.84176 4.52475 11.3347 4.5013C12.8276 4.47784 14.3064 4.77232 15.6629 5.36241C17.0194 5.95247 18.2183 6.82275 19.173 7.90804" stroke="#1F2937"/>
    <rect x="5.5" y="8.5" width="12" height="19" rx="6" stroke="#1F2937"/>
    <line x1="5" y1="38.5" x2="18" y2="38.5" stroke="#1F2937"/>
    <line x1="11.5" y1="32" x2="11.5" y2="38" stroke="#1F2937"/>
</svg>
