<svg width="25" height="40" viewBox="0 0 25 40" fill="none" xmlns="http://www.w3.org/2000/svg">
    <path d="M22.2609 22.5C22.2609 25.0115 21.2135 27.4253 19.3407 29.209C17.467 30.9935 14.9207 32 12.2609 32C9.60104 32 7.05477 30.9935 5.18107 29.209C3.3082 27.4253 2.26086 25.0115 2.26086 22.5" stroke="#1F2937" stroke-linecap="round"/>
    <rect x="6.26086" y="9" width="12" height="19" rx="6" stroke="#1F2937"/>
    <line x1="6.26086" y1="39" x2="18.2609" y2="39" stroke="#1F2937" stroke-linecap="round"/>
    <line x1="12.2609" y1="32.5" x2="12.2609" y2="38.5" stroke="#1F2937"/>
    <path d="M4.82605 8.58611C5.71226 7.472 6.83752 6.57129 8.11867 5.95058C9.39982 5.32987 10.8041 5.00503 12.2277 5.00006C13.6513 4.99509 15.0578 5.31012 16.3432 5.92187C17.6286 6.53363 18.7602 7.42645 19.6541 8.53435" stroke="#1F2937" stroke-linecap="round"/>
    <path d="M0.913086 6.47354C2.26572 4.77305 3.98323 3.39829 5.93866 2.45089C7.8941 1.50349 10.0375 1.00767 12.2103 1.00009C14.3831 0.992504 16.5299 1.47335 18.4919 2.40707C20.4539 3.3408 22.181 4.70353 23.5454 6.39454" stroke="#1F2937" stroke-linecap="round"/>
</svg>
