<svg width="33" height="43" viewBox="0 0 33 43" fill="none" xmlns="http://www.w3.org/2000/svg">
    <path d="M26.5 26C26.5 28.5115 25.4527 30.9253 23.5798 32.709C21.7061 34.4935 19.1598 35.5 16.5 35.5C13.8402 35.5 11.2939 34.4935 9.42021 32.709C7.54734 30.9253 6.5 28.5115 6.5 26" stroke="#1F2937" stroke-linecap="round"/>
    <rect x="10.5" y="12.5" width="12" height="19" rx="6" fill="#FF8F8F" stroke="#1F2937"/>
    <line x1="10.5" y1="42.5" x2="22.5" y2="42.5" stroke="#1F2937" stroke-linecap="round"/>
    <line x1="16.5" y1="36" x2="16.5" y2="42" stroke="#1F2937"/>
    <path d="M9.06519 12.0861C9.95139 10.972 11.0767 10.0713 12.3578 9.45058C13.639 8.82987 15.0432 8.50503 16.4668 8.50006C17.8904 8.49509 19.2969 8.81012 20.5823 9.42187C21.8678 10.0336 22.9993 10.9265 23.8933 12.0344" stroke="#1F2937" stroke-linecap="round"/>
    <path d="M5.15222 9.97354C6.50485 8.27305 8.22237 6.89829 10.1778 5.95089C12.1332 5.00349 14.2766 4.50767 16.4494 4.50009C18.6223 4.4925 20.769 4.97335 22.731 5.90707C24.693 6.8408 26.4201 8.20353 27.7846 9.89454" stroke="#1F2937" stroke-linecap="round"/>
    <path d="M1.23914 7.86096C3.05819 5.5741 5.36795 3.72528 7.99767 2.4512C10.6274 1.17711 13.5098 0.510319 16.4319 0.500119C19.354 0.489919 22.241 1.13657 24.8796 2.39227C27.5181 3.64797 29.8408 5.48061 31.6757 7.75472" stroke="#1F2937" stroke-linecap="round"/>
</svg>
