<svg width="28" height="43" viewBox="0 0 28 43" fill="none" xmlns="http://www.w3.org/2000/svg">
    <path d="M23.5 26C23.5 28.5115 22.4527 30.9253 20.5798 32.709C18.7061 34.4935 16.1598 35.5 13.5 35.5C10.8402 35.5 8.29391 34.4935 6.42021 32.709C4.54734 30.9253 3.5 28.5115 3.5 26" stroke="#1F2937"/>
    <path d="M3.17911 9.15801C4.24605 7.73425 5.77042 6.54712 7.60987 5.72543C9.44917 4.90381 11.5315 4.48 13.6481 4.50072C15.7646 4.52145 17.8329 4.98589 19.6456 5.84286C21.4585 6.69989 22.9449 7.91569 23.9671 9.35863" stroke="#1F2937"/>
    <path d="M0.585217 6.34386C1.66095 4.60218 3.49137 3.09477 5.86887 2.04211C8.24465 0.990224 11.0357 0.451218 13.8773 0.503468C16.719 0.555721 19.4624 1.19653 21.7502 2.33259C24.0396 3.4694 25.7457 5.03813 26.6819 6.81047" stroke="#1F2937"/>
    <path d="M5.61969 12.1517C6.53611 11.0373 7.70391 10.13 9.03895 9.49779C10.3741 8.86552 11.8418 8.52475 13.3347 8.5013C14.8276 8.47784 16.3064 8.77232 17.6629 9.36241C19.0194 9.95247 20.2183 10.8227 21.173 11.908" stroke="#1F2937"/>
    <rect x="7.5" y="12.5" width="12" height="19" rx="6" fill="#FF8F8F" stroke="#1F2937"/>
    <line x1="7" y1="42.5" x2="20" y2="42.5" stroke="#1F2937"/>
    <line x1="13.5" y1="36" x2="13.5" y2="42" stroke="#1F2937"/>
</svg>
